<svg height="30pt" viewBox="0 -4 512 512" width="30pt" xmlns="http://www.w3.org/2000/svg"><path d="m383.691406 169.15625v63.847656c0 54.367188-35.628906 100.597656-85.324218 117.664063 1.265624-.4375 2.527343-.882813 3.773437-1.355469 8.386719 4.480469 16.347656 10.175781 23.777344 16.914062 12.792969 4.929688 26.734375 7.640626 41.324219 7.640626 62.234374 0 112.679687-49.269532 112.679687-110.046876v-94.664062zm0 0" fill="#fff"/><path d="m477.84375 485.253906c-6.691406-55.40625-33.894531-99.566406-69.886719-118.796875-12.628906 4.78125-26.359375 7.410157-40.714843 7.410157-14.359376 0-28.082032-2.636719-40.707032-7.417969-.078125.042969-.152344.085937-.226562.128906 28.492187 26.042969 49.03125 67.703125 55.027344 117.351563.34375 2.851562-.546876 5.71875-2.445313 7.871093-1.898437 2.152344-4.628906 3.382813-7.492187 3.382813h97.675781c2.527343 0 4.933593-1.089844 6.609375-2.984375 1.679687-1.898438 2.464844-4.429688 2.160156-6.945313zm0 0" fill="#ffc843"/><path d="m367.242188 373.867188c-12.976563 0-25.441407-2.144532-37.042969-6.089844.351562 2.464844 1.714843 5.386718 3.332031 6.964844l30.28125 29.515624c1.886719 1.835938 4.96875 1.835938 6.855469-.003906l30.28125-29.511718c1.617187-1.578126 2.980469-4.503907 3.332031-6.964844-11.601562 3.941406-24.0625 6.089844-37.039062 6.089844zm0 0" fill="#e1eaf8"/><path d="m489.816406 225.273438h-9.894531v38.546874c0 10.328126-1.457031 20.328126-4.183594 29.808594h14.078125c7.890625 0 14.347656-6.464844 14.347656-14.367187v-39.621094c0-7.902344-6.457031-14.367187-14.347656-14.367187zm0 0" fill="#e1eaf8"/><path d="m367.242188 65.113281c-1.265626 0-2.523438.027344-3.773438.066407 11.613281 17.640624 18.808594 38.324218 20.03125 60.554687h.195312v52.640625h62.402344l33.824219 69.804688v-73.019532c0-60.777344-50.449219-110.046875-112.679687-110.046875zm0 0" fill="#76ffd9"/><path d="m133.113281 491.800781c-1.902343-2.152343-2.792969-5.019531-2.445312-7.871093 5.992187-49.648438 26.53125-91.308594 55.027343-117.351563-.078124-.042969-.152343-.085937-.230468-.128906-12.628906 4.78125-26.351563 7.417969-40.707032 7.417969-14.359374 0-28.085937-2.628907-40.714843-7.410157-35.992188 19.230469-63.195313 63.390625-69.886719 118.796875-.304688 2.515625.480469 5.046875 2.15625 6.941406 1.675781 1.898438 4.082031 2.984376 6.609375 2.984376h97.675781c-2.859375.003906-5.589844-1.230469-7.484375-3.378907zm0 0" fill="#ffc843"/><path d="m144.757812 373.867188c-12.976562 0-25.4375-2.148438-37.035156-6.089844.351563 2.464844 1.710938 5.386718 3.332032 6.964844l30.277343 29.511718c1.886719 1.839844 4.96875 1.839844 6.855469.003906l30.28125-29.515624c1.621094-1.578126 2.980469-4.5 3.332031-6.964844-11.601562 3.945312-24.066406 6.089844-37.042969 6.089844zm0 0" fill="#e1eaf8"/><path d="m32.078125 263.816406v-38.542968h-9.894531c-7.890625 0-14.347656 6.464843-14.347656 14.367187v39.621094c0 7.898437 6.457031 14.363281 14.347656 14.363281h14.078125c-2.722657-9.480469-4.183594-19.476562-4.183594-29.808594zm0 0" fill="#e1eaf8"/><path d="m186.085938 366.222656c7.429687-6.734375 15.390624-12.429687 23.777343-16.914062 1.234375.46875 2.484375.914062 3.738281 1.34375-49.679687-17.074219-85.292968-63.296875-85.292968-117.648438v-54.628906h-62.40625l-33.824219 69.804688v15.640624c0 60.777344 50.445313 110.046876 112.679687 110.046876 14.589844 0 28.53125-2.710938 41.328126-7.644532zm0 0" fill="#fff"/><path d="m64.785156 263.816406v-83.132812l-32.707031 67.496094v15.636718c0 60.777344 50.445313 110.050782 112.679687 110.050782 5.554688 0 11.015626-.402344 16.355469-1.15625-54.484375-7.738282-96.328125-53.539063-96.328125-108.894532zm0 0" fill="#e1eaf8"/><path d="m128.308594 132.539062v-6.800781h.191406c1.226562-22.234375 8.417969-42.917969 20.035156-60.558593-1.253906-.039063-2.511718-.066407-3.773437-.066407-62.234375 0-112.683594 49.269531-112.683594 110.046875v73.019532l33.824219-69.804688h62.40625zm0 0" fill="#76ffd9"/><path d="m302.140625 349.3125c-14.308594 5.417969-29.867187 8.394531-46.136719 8.394531-16.273437 0-31.832031-2.976562-46.140625-8.394531-40.785156 21.789062-71.613281 71.832031-79.195312 134.617188-.347657 2.851562.542969 5.71875 2.445312 7.871093 1.894531 2.152344 4.625 3.382813 7.488281 3.382813h230.800782c2.863281 0 5.589844-1.234375 7.488281-3.382813 1.902344-2.152343 2.789063-5.019531 2.445313-7.871093-7.582032-62.785157-38.410157-112.828126-79.195313-134.617188zm0 0" fill="#76ffd9"/><g fill="#fff"><path d="m256.003906 357.707031c-14.707031 0-28.828125-2.433593-41.976562-6.902343.398437 2.792968 1.941406 6.105468 3.777344 7.894531l34.3125 33.449219c2.136718 2.078124 5.632812 2.078124 7.769531-.003907l34.3125-33.445312c1.835937-1.789063 3.375-5.101563 3.773437-7.890625-13.144531 4.464844-27.265625 6.898437-41.96875 6.898437zm0 0"/><path d="m128.308594 233.003906v-43.679687h-11.210938c-8.941406 0-16.257812 7.328125-16.257812 16.28125v44.902343c0 8.949219 7.316406 16.277344 16.257812 16.277344h15.957032c-3.089844-10.746094-4.746094-22.074218-4.746094-33.78125zm0 0"/><path d="m411.160156 250.507812c0 8.949219-7.316406 16.277344-16.261718 16.277344h-17.574219c-8.941407 0-16.257813-7.328125-16.257813-16.277344v-44.902343c0-8.953125 7.316406-16.28125 16.257813-16.28125h17.574219c8.945312 0 16.261718 7.328125 16.261718 16.28125zm0 0"/><path d="m394.902344 189.324219h-11.210938v43.679687c0 11.707032-1.65625 23.035156-4.742187 33.78125h15.953125c8.945312 0 16.261718-7.328125 16.261718-16.277344v-44.902343c-.003906-8.953125-7.320312-16.28125-16.261718-16.28125zm0 0"/><path d="m383.691406 215.28125-38.332031-79.097656h-178.71875l-38.332031 79.097656v17.722656c0 68.871094 57.171875 124.703125 127.695312 124.703125 70.519532 0 127.6875-55.832031 127.6875-124.703125zm0 0"/></g><path d="m166.640625 136.183594h178.71875l38.332031 79.097656v-82.742188c0-68.875-57.167968-124.707031-127.6875-124.707031-70.523437 0-127.695312 55.832031-127.695312 124.707031v82.742188zm0 0" fill="#ffc843"/><path d="m160.914062 233.003906v-85.003906l-32.605468 67.28125v17.722656c0 68.871094 57.171875 124.703125 127.695312 124.703125 5.523438 0 10.964844-.339843 16.300782-1.007812-62.824219-7.816407-111.390626-60.214844-111.390626-123.695313zm0 0" fill="#e1eaf8"/><path d="m160.914062 132.539062c0-63.480468 48.566407-115.878906 111.390626-123.699218-5.339844-.664063-10.78125-1.007813-16.300782-1.007813-70.523437 0-127.695312 55.835938-127.695312 124.707031v82.742188l32.605468-67.28125zm0 0" fill="#ffb400"/><path d="m192.117188 220.648438c-4.332032 0-7.839844 3.507812-7.839844 7.835937v22.855469c0 4.328125 3.507812 7.835937 7.839844 7.835937 4.328124 0 7.835937-3.507812 7.835937-7.835937v-22.855469c0-4.328125-3.507813-7.835937-7.835937-7.835937zm0 0" fill="#969ba1"/><path d="m319.886719 220.648438c-4.328125 0-7.835938 3.507812-7.835938 7.835937v22.855469c0 4.328125 3.507813 7.835937 7.835938 7.835937s7.835937-3.507812 7.835937-7.835937v-22.855469c0-4.328125-3.507812-7.835937-7.835937-7.835937zm0 0" fill="#969ba1"/><path d="m284.695312 280.5625c-4.328124 0-7.835937 3.507812-7.835937 7.835938 0 7.707031-6.429687 13.976562-14.335937 13.976562h-13.042969c-7.902344 0-14.335938-6.269531-14.335938-13.976562 0-4.328126-3.507812-7.835938-7.835937-7.835938s-7.835938 3.507812-7.835938 7.835938c0 16.351562 13.460938 29.652343 30.007813 29.652343h13.042969c16.546874 0 30.011718-13.300781 30.011718-29.652343 0-4.328126-3.511718-7.835938-7.839844-7.835938zm0 0" fill="#969ba1"/><path d="m249.867188 265.605469h12.269531c4.328125 0 7.835937-3.507813 7.835937-7.835938s-3.507812-7.835937-7.835937-7.835937h-4.433594v-17.828125c0-4.328125-3.507813-7.835938-7.835937-7.835938-4.332032 0-7.839844 3.507813-7.839844 7.835938v25.664062c0 4.328125 3.507812 7.835938 7.839844 7.835938zm0 0" fill="#969ba1"/><path d="m489.816406 217.4375h-2.054687v-.410156h-.003907v-41.867188c0-64.925781-53.933593-117.753906-120.28125-117.882812-13.597656-19.285156-32.40625-35.109375-54.96875-45.246094-3.949218-1.769531-8.585937-.007812-10.359374 3.941406-1.773438 3.949219-.011719 8.585938 3.9375 10.359375 42.382812 19.035157 69.769531 60.726563 69.769531 106.207031v48.601563l-23.441407-48.375c-1.308593-2.703125-4.050781-4.417969-7.050781-4.417969h-55.425781l18.625-18.628906c3.0625-3.058594 3.0625-8.019531 0-11.082031-3.0625-3.058594-8.023438-3.058594-11.082031 0l-29.710938 29.710937h-33.214843l28.03125-28.03125c3.0625-3.058594 3.0625-8.023437 0-11.082031-3.058594-3.058594-8.023438-3.058594-11.082032 0l-39.113281 39.113281h-45.75c-3.003906 0-5.742187 1.71875-7.050781 4.421875l-23.445313 48.375v-48.601562c0-64.441407 53.769531-116.871094 119.855469-116.871094 8.277344 0 16.539062.828125 24.566406 2.457031 4.242188.855469 8.378906-1.878906 9.238282-6.121094.859374-4.246093-1.878907-8.378906-6.121094-9.242187-9.050782-1.835937-18.363282-2.765625-27.679688-2.765625-46.171875 0-87.011718 22.699219-111.492187 57.28125-66.339844.128906-120.269531 52.957031-120.269531 117.878906v42.277344h-2.058594c-12.230469 0-22.183594 9.960938-22.183594 22.203125v39.621094c0 12.242187 9.953125 22.203125 22.183594 22.203125h8.375c9.824218 28.433594 30.4375 52.046875 57.070312 66.128906-31.78125 23.191406-55.050781 65.363281-61.253906 116.71875-.570312 4.734375.910156 9.5 4.0625 13.074219 3.164062 3.578125 7.710938 5.632812 12.484375 5.632812h426.15625c4.773437 0 9.320313-2.054687 12.484375-5.632812 3.152344-3.574219 4.632812-8.339844 4.0625-13.074219-6.199219-51.339844-29.460938-93.503906-61.230469-116.699219 8.101563-4.269531 15.734375-9.464843 22.730469-15.523437 3.269531-2.832032 3.625-7.785156.789062-11.054688-2.835937-3.273437-7.785156-3.625-11.054687-.789062-19.1875 16.628906-43.914063 25.785156-69.617187 25.785156-13.113282 0-25.660157-2.375-37.242188-6.679688-.328125-.292968-.648438-.601562-.980469-.890624-3.335937-2.898438-6.765625-5.554688-10.261719-8.023438 30.890626-15.851562 54.796876-43.003906 65.921876-75.820312h10.222656c13.285156 0 24.097656-10.816407 24.097656-24.113282v-44.902344c0-7.941406-3.859375-14.996093-9.792969-19.390624h31.980469l30.898438 63.765624v13.839844c0 19.355469-5.574219 38.195313-16.121094 54.484375-2.351563 3.632813-1.3125 8.484375 2.320312 10.835938 3.632813 2.351562 8.484375 1.316406 10.835938-2.320313 5.167968-7.980468 9.292968-16.492187 12.339844-25.355468h8.355468c12.230469 0 22.183594-9.960938 22.183594-22.203126v-39.621093c0-12.238281-9.953125-22.199219-22.183594-22.199219zm-467.632812 68.355469c-3.589844 0-6.511719-2.929688-6.511719-6.53125v-39.621094c0-3.601563 2.921875-6.53125 6.511719-6.53125h2.054687v30.710937c0 7.507813.738281 14.847657 2.117188 21.972657zm17.730468-110.632813c0-53.0625 41.691407-96.792968 94.816407-101.730468-7.8125 15.265624-12.703125 32.203124-13.9375 50.105468-.207031.699219-.320313 9.003906-.320313 9.003906v38h-54.570312c-3.003906 0-5.742188 1.714844-7.050782 4.417969l-18.9375 39.078125zm83.171876 83.785156h-5.984376c-4.644531 0-8.425781-3.785156-8.425781-8.4375v-44.902343c0-4.65625 3.777344-8.441407 8.425781-8.441407h3.371094v35.839844c0 8.875.902344 17.550782 2.613282 25.941406zm-83.171876 4.871094v-13.839844l30.898438-63.765624h31.984375c-5.9375 4.398437-9.792969 11.453124-9.792969 19.394531v44.902343c0 13.296876 10.808594 24.113282 24.09375 24.113282h10.226563c11.121093 32.8125 35.03125 59.96875 65.917969 75.820312-3.828126 2.714844-7.546876 5.683594-11.152344 8.875-11.601563 4.328125-24.183594 6.714844-37.332032 6.714844-57.8125 0-104.84375-45.851562-104.84375-102.214844zm121.34375 116.757813-16.496093 16.078125-16.472657-16.050782c5.386719.722657 10.882813 1.105469 16.46875 1.105469 5.597657-.003906 11.101563-.402343 16.5-1.132812zm-118.335937 106.769531c-.277344 0-.546875-.121094-.734375-.332031-.195312-.222657-.285156-.519531-.25-.820313 6.050781-50.101562 29.429688-90.476562 60.628906-109.859375.859375 1.515625 1.875 2.90625 3.015625 4.023438l30.28125 29.511719c1.859375 1.8125 4.195313 2.980468 6.726563 3.410156-9.761719 20.578125-16.613282 44.128906-19.703125 69.710937-.175781 1.464844-.148438 2.921875.027343 4.359375h-79.992187zm324.320313-105.640625c5.539062 0 11.035156-.371094 16.464843-1.101563l-16.46875 16.050782-16.476562-16.0625c5.390625.726562 10.890625 1.113281 16.480469 1.113281zm-4.523438 56.316406c1.445312 4.082031 5.921875 6.21875 10 4.769531 4.082031-1.445312 6.214844-5.921874 4.773438-10.003906-2.394532-6.753906-5.097657-13.257812-8.058594-19.511718 2.523437-.433594 4.847656-1.597657 6.703125-3.40625l30.28125-29.515626c1.144531-1.117187 2.15625-2.503906 3.015625-4.019531 31.199218 19.382813 54.578125 59.757813 60.628906 109.859375.035156.296875-.054688.597656-.253906.820313-.183594.210937-.453125.332031-.734375.332031h-79.988281c.179687-1.433594.207031-2.894531.027343-4.355469-.71875-5.957031-1.660156-11.921875-2.796875-17.730469-.828125-4.246093-4.933594-7.011718-9.195312-6.1875-4.246094.832032-7.015625 4.949219-6.183594 9.195313 1.0625 5.4375 1.941406 11.023437 2.617188 16.605469.074218.628906-.121094 1.265625-.542969 1.742187-.410157.464844-.996094.730469-1.613281.730469h-230.796876c-.613281 0-1.203124-.265625-1.617187-.738281-.417969-.472657-.613281-1.105469-.539063-1.738281 6.957032-57.597657 34.042969-103.929688 70.136719-125.832032 1.023438 2.023438 2.304688 3.867188 3.75 5.277344l34.320313 33.449219c2.503906 2.4375 5.824218 3.78125 9.347656 3.78125 3.527344 0 6.851562-1.347657 9.355469-3.785157l34.3125-33.445312c1.433593-1.402344 2.707031-3.226562 3.726562-5.234375 5.28125 3.203125 10.414063 6.929687 15.34375 11.210937 18.894531 16.425782 34.101563 39.847657 43.980469 67.730469zm-128.410156-74.175781c7.066406 1.113281 14.308594 1.703125 21.695312 1.703125 7.382813 0 14.625-.585937 21.691406-1.703125l-21.695312 21.144531zm141.546875-130.839844c0 64.441406-53.765625 116.867188-119.851563 116.867188-66.089844 0-119.859375-52.425782-119.859375-116.867188v-15.925781l35.40625-73.058594h168.898438l35.40625 73.0625zm27.46875 17.503906c0 4.652344-3.777344 8.4375-8.425781 8.4375h-5.980469c1.707031-8.390624 2.613281-17.066406 2.613281-25.941406v-35.839844h3.371094c4.644531 0 8.421875 3.785157 8.421875 8.441407zm68.761719-36.472656-18.9375-39.078125c-1.308594-2.703125-4.046876-4.417969-7.050782-4.417969h-54.566406v-33.96875c0-.78125-.117188-12.363281-.332031-13.074218-1.242188-17.65625-6.105469-34.640625-13.988281-50.074219 53.152343 4.910156 94.875 48.65625 94.875 101.738281zm24.242187 65.226563c0 3.601562-2.921875 6.53125-6.511719 6.53125h-4.167968c1.390624-7.203125 2.113281-14.554688 2.113281-21.972657v-30.710937h2.054687c3.589844 0 6.511719 2.929687 6.511719 6.53125zm0 0" fill="#434c54"/></svg>